<mxfile host="app.diagrams.net" modified="2024-06-10T16:44:46.285Z" agent="Mozilla/5.0 (X11; Linux x86_64) AppleWebKit/537.36 (KHTML, like Gecko) Chrome/125.0.0.0 Safari/537.36" version="24.5.2" etag="wKPSgKh1QEOOddD7T4VF" type="github">
  <diagram name="PÃ¡gina-1" id="9bh9Gmkb_WhzBplzX6zj">
    <mxGraphModel>
      <root>
        <mxCell id="0" />
        <mxCell id="1" parent="0" />
      </root>
    </mxGraphModel>
  </diagram>
</mxfile>
